<mxfile host="app.diagrams.net" modified="2022-08-03T10:21:15.218Z" agent="5.0 (Windows NT 10.0; Win64; x64) AppleWebKit/537.36 (KHTML, like Gecko) Chrome/103.0.5060.134 Safari/537.36 Edg/103.0.1264.77" etag="U3NRLVBDUgR5htZix8ov" version="20.2.2" type="github">
  <diagram id="i1JLniOj2O3--JGgW5lW" name="第 1 页">
    <mxGraphModel dx="1422" dy="794" grid="1" gridSize="10" guides="1" tooltips="1" connect="1" arrows="1" fold="1" page="1" pageScale="1" pageWidth="827" pageHeight="1169" math="0" shadow="0">
      <root>
        <mxCell id="0" />
        <mxCell id="1" parent="0" />
        <mxCell id="BAH_8OyrYWaH45ClL6kI-3" value="" style="edgeStyle=orthogonalEdgeStyle;rounded=0;orthogonalLoop=1;jettySize=auto;html=1;" edge="1" parent="1" source="BAH_8OyrYWaH45ClL6kI-1" target="BAH_8OyrYWaH45ClL6kI-2">
          <mxGeometry relative="1" as="geometry" />
        </mxCell>
        <mxCell id="BAH_8OyrYWaH45ClL6kI-1" value="使用&lt;br&gt;" style="rounded=0;whiteSpace=wrap;html=1;" vertex="1" parent="1">
          <mxGeometry x="354" y="80" width="120" height="60" as="geometry" />
        </mxCell>
        <mxCell id="BAH_8OyrYWaH45ClL6kI-5" value="" style="edgeStyle=orthogonalEdgeStyle;rounded=0;orthogonalLoop=1;jettySize=auto;html=1;entryX=0.417;entryY=0;entryDx=0;entryDy=0;entryPerimeter=0;" edge="1" parent="1" source="BAH_8OyrYWaH45ClL6kI-2" target="BAH_8OyrYWaH45ClL6kI-8">
          <mxGeometry relative="1" as="geometry">
            <mxPoint x="554" y="250" as="targetPoint" />
          </mxGeometry>
        </mxCell>
        <mxCell id="BAH_8OyrYWaH45ClL6kI-7" value="" style="edgeStyle=orthogonalEdgeStyle;rounded=0;orthogonalLoop=1;jettySize=auto;html=1;" edge="1" parent="1" source="BAH_8OyrYWaH45ClL6kI-2" target="BAH_8OyrYWaH45ClL6kI-6">
          <mxGeometry relative="1" as="geometry" />
        </mxCell>
        <mxCell id="BAH_8OyrYWaH45ClL6kI-2" value="模块化" style="whiteSpace=wrap;html=1;rounded=0;" vertex="1" parent="1">
          <mxGeometry x="354" y="220" width="120" height="60" as="geometry" />
        </mxCell>
        <mxCell id="BAH_8OyrYWaH45ClL6kI-6" value="MONO&lt;br&gt;" style="whiteSpace=wrap;html=1;rounded=0;" vertex="1" parent="1">
          <mxGeometry x="120" y="290" width="120" height="60" as="geometry" />
        </mxCell>
        <mxCell id="BAH_8OyrYWaH45ClL6kI-8" value="Module" style="rounded=0;whiteSpace=wrap;html=1;" vertex="1" parent="1">
          <mxGeometry x="560" y="290" width="120" height="60" as="geometry" />
        </mxCell>
        <mxCell id="BAH_8OyrYWaH45ClL6kI-9" value="Rect Anchor" style="whiteSpace=wrap;html=1;" vertex="1" parent="1">
          <mxGeometry x="340" y="540" width="120" height="60" as="geometry" />
        </mxCell>
        <mxCell id="BAH_8OyrYWaH45ClL6kI-10" value="AB 打包" style="whiteSpace=wrap;html=1;" vertex="1" parent="1">
          <mxGeometry x="340" y="820" width="120" height="60" as="geometry" />
        </mxCell>
      </root>
    </mxGraphModel>
  </diagram>
</mxfile>
